<svg height="512" viewBox="0 0 128 128" width="512" xmlns="http://www.w3.org/2000/svg" xmlns:xlink="http://www.w3.org/1999/xlink"><linearGradient id="a" gradientUnits="userSpaceOnUse" x1="102.224" x2="19.904" y1="110.585" y2="28.265"><stop offset="0" stop-color="#4a7aff"/><stop offset="1" stop-color="#ff36c1"/></linearGradient><path d="m33.707 61.344a1.749 1.749 0 0 1 -.7-2.374q.186-.342.381-.678a1.75 1.75 0 1 1 3.029 1.754c-.115.2-.228.4-.338.6a1.749 1.749 0 0 1 -2.374.7zm34.555-31.879a3.24 3.24 0 1 1 -3.24-3.24 3.243 3.243 0 0 1 3.24 3.24zm40.905 69.952h-9.834a1.75 1.75 0 0 0 0 3.5h9.834a1.75 1.75 0 0 0 0-3.5zm-16.167 0h-.75a1.75 1.75 0 0 0 0 3.5h.75a1.75 1.75 0 0 0 0-3.5zm-6.833 0h-21.145a1.75 1.75 0 0 0 -.91 3.245l7.4 4.5-19.2-7.623a1.746 1.746 0 0 0 -.646-.124h-32.833a1.75 1.75 0 0 0 0 3.5h32.5l19.834 7.876a1.738 1.738 0 0 0 .646.124h6.355a1.75 1.75 0 0 0 .909-3.245l-7.813-4.755h14.9a1.75 1.75 0 0 0 0-3.5zm-69.084-5.125a1.75 1.75 0 0 1 1.75-1.75h10.5v-19.11a30.3 30.3 0 0 1 1.18-8.395 1.75 1.75 0 1 1 3.363.969 26.808 26.808 0 0 0 -1.043 7.426v18.285a26.789 26.789 0 0 0 25.005-26.7v-18.283a26.867 26.867 0 0 0 -16.92 7.538l-.023.022c-.338.33-.669.667-.991 1.016a1.75 1.75 0 0 1 -2.574-2.372c.193-.209.4-.408.594-.612v-10.289a24.962 24.962 0 0 1 12.231-21.454h-16.486a13.939 13.939 0 0 0 3.505 7.632 1.749 1.749 0 1 1 -2.593 2.349 17.44 17.44 0 0 1 -4.521-11.731 1.75 1.75 0 0 1 1.75-1.75h43.843a23.038 23.038 0 0 1 23.012 23.017 1.75 1.75 0 0 1 -1.75 1.75h-5.083a16.268 16.268 0 0 1 -9.753 13.216 1.75 1.75 0 1 1 -1.379-3.219 12.778 12.778 0 0 0 7.616-10h-10.916v17.488a28.3 28.3 0 0 1 -14.6 24.771h5.179a9.43 9.43 0 0 1 9.365 8.436h31.816a1.75 1.75 0 0 1 0 3.5h-90.327a1.75 1.75 0 0 1 -1.75-1.75zm60.317-73.625v17.679h17.687a19.541 19.541 0 0 0 -17.687-17.679zm-22.322 62.751a24.808 24.808 0 0 0 18.822-24.083v-38.752h-8.878a8.882 8.882 0 0 0 0 17.763h3.811a1.75 1.75 0 0 1 0 3.5h-3.811a12.358 12.358 0 0 1 -9.9-19.79 21.471 21.471 0 0 0 -13.7 19.981v7.216a30.341 30.341 0 0 1 18.168-6.076 1.75 1.75 0 0 1 1.75 1.75v20.092a30.093 30.093 0 0 1 -6.262 18.399zm-11.455 9.124h30.192a5.922 5.922 0 0 0 -5.829-4.936h-16.8a30.321 30.321 0 0 1 -7.563 4.936z" fill="url(#a)"/></svg>