<?xml version="1.0"?>
<svg xmlns="http://www.w3.org/2000/svg" xmlns:xlink="http://www.w3.org/1999/xlink" xmlns:svgjs="http://svgjs.com/svgjs" version="1.1" width="512" height="512" x="0" y="0" viewBox="0 0 512 512" style="enable-background:new 0 0 512 512" xml:space="preserve" class=""><g transform="matrix(1,0,0,1,0,0)"><g xmlns="http://www.w3.org/2000/svg"><g><path d="m341.698 242.226h27.71c53.409 0 96.861-43.473 96.861-96.908 0-5.649-2.586-10.706-6.636-14.047 31.083-16.152 52.367-48.671 52.367-86.066 0-10.038-8.164-18.205-18.199-18.205h-48.083c-4.143 0-7.5 3.358-7.5 7.5s3.357 7.5 7.5 7.5h48.083c1.764 0 3.199 1.438 3.199 3.205 0 45.165-36.723 81.908-81.86 81.908h-138.448c-4.143 0-7.5 3.358-7.5 7.5s3.357 7.5 7.5 7.5h171.378c1.764 0 3.199 1.438 3.199 3.205 0 45.165-36.723 81.908-81.861 81.908h-42.676l-82.452-82.643c-26.544-26.605-61.821-41.688-99.33-42.468-34.461-.721-67.278 10.76-93.384 32.477 4.81-12.341 12.182-23.623 21.887-33.333 18.835-18.846 43.894-29.225 70.558-29.225 4.142 0 7.5-3.358 7.5-7.5s-3.358-7.5-7.5-7.5c-30.673 0-59.499 11.94-81.168 33.621-17.604 17.613-28.912 40.703-31.955 65.126-6.023 7.614-11.184 15.738-15.466 24.23-.366-4.562-.499-9.155-.379-13.767.87-33.446 14.757-64.736 39.104-88.105 24.281-23.305 56.195-36.139 89.865-36.139h267.04c4.143 0 7.5-3.358 7.5-7.5s-3.357-7.5-7.5-7.5h-267.04c-37.561 0-73.165 14.318-100.252 40.318-27.214 26.121-42.738 61.116-43.711 98.537-.365 14.056 1.312 27.979 4.967 41.396-10.159 37.691-4.886 79.091 17.12 113.799 2.218 3.498 6.852 4.538 10.35 2.318 3.498-2.218 4.536-6.852 2.318-10.35-32.59-51.399-24.186-119.208 19.984-161.234 24.235-23.06 56.144-35.372 89.85-34.672 33.614.699 65.23 14.218 89.023 38.066l247.192 247.762c1.255 1.258 1.255 3.305 0 4.563-15.451 15.487-35.992 24.016-57.842 24.016-21.848 0-42.389-8.529-57.839-24.016l-52.279-52.4c-2.925-2.931-7.674-2.938-10.606-.012-2.933 2.926-2.938 7.674-.013 10.607l52.279 52.4.005.005 23.266 23.321c1.255 1.258 1.255 3.304 0 4.562-15.45 15.485-35.992 24.014-57.84 24.014-21.849 0-42.391-8.529-57.841-24.016l-62.753-62.898c-9.722-9.744-23.784-14.302-37.613-12.194-39.971 6.097-80.878-7.349-109.427-35.962-2.926-2.932-7.675-2.938-10.607-.012s-2.938 7.674-.012 10.607c16.064 16.101 35.923 28.237 57.43 35.097 20.805 6.636 43.239 8.401 64.877 5.1 9.129-1.39 18.373 1.584 24.733 7.96l62.753 62.898c18.285 18.326 42.598 28.42 68.46 28.42 25.861 0 50.174-10.094 68.459-28.421 3.972-3.981 5.717-9.361 5.234-14.572 9.363 2.97 19.229 4.511 29.333 4.511h.001c25.86 0 50.176-10.095 68.46-28.421 7.083-7.099 7.083-18.651 0-25.751z" fill="#ffffff" data-original="#000000" style="" class=""/><path d="m45.008 243.264c.345-26.583 11.153-51.328 30.434-69.673 17.918-17.049 41.538-26.438 66.509-26.438 26.618 0 51.654 10.401 70.496 29.287 2.926 2.932 7.675 2.938 10.607.012s2.938-7.674.012-10.607c-21.677-21.727-50.484-33.692-81.115-33.692-28.837 0-56.13 10.857-76.849 30.571-22.232 21.154-34.695 49.688-35.093 80.346-.054 4.142 3.26 7.543 7.402 7.597h.099c4.097 0 7.444-3.294 7.498-7.403z" fill="#ffffff" data-original="#000000" style="" class=""/><path d="m284.39 344.652c1.916 0 3.833-.73 5.297-2.19 2.933-2.926 2.938-7.674.013-10.607l-39.578-39.669c-2.927-2.932-7.674-2.938-10.607-.012-2.932 2.926-2.938 7.674-.012 10.607l39.578 39.669c1.464 1.468 3.386 2.202 5.309 2.202z" fill="#ffffff" data-original="#000000" style="" class=""/></g></g></g></svg>
